<svg xmlns="http://www.w3.org/2000/svg" width="160" height="54" viewBox="0 0 160 54"><g fill="none" fill-rule="evenodd"><rect width="160" height="54" fill="#000" rx="12"/><g fill="#FFF"><path d="M121.378 30.222c-.114-11.83 5.253-19.102 16.012-25.263-6.04-8.005-15.116-12.41-27.13-13.265-11.37-1.12-23.792 6.15-28.342 6.15-4.802 0-15.82-5.85-24.47-5.85-17.71 0-33.86 12.49-33.86 31.062 0 21.37 14.185 35.81 28.47 35.81 8.135 0 16.84-5.02 23.8-5.02s14.7 5.02 23.8 5.02c9.576 0 22.257-6.57 28.47-15.65.45-.65.83-1.34 1.214-2.02-1.7-1.07-3.33-2.2-4.83-3.6-4.42-3.8-8.07-8.2-10.824-13.364z"/><path d="M110.82 13.916c3.81-4.2 6.53-9.55 6.47-14.95-6.24.03-11.81 3.1-15.79 7.3-3.95 4.12-6.88 9.3-6.47 14.65 6.34-.13 12.04-2.8 15.79-7z"/></g><g transform="translate(23.11 11.233)"><path fill="#FFF" d="M14.618 10.963V8.375c0-.44-.225-.66-.676-.66h-1.57c-.18 0-.34.02-.48.06v3.128h2.726zm-3.326 2.308c.95 0 1.95-.08 3-.24V0h-3v5.61c0 .48-.22.72-.66.72h-1.59c-.18 0-.34-.02-.48-.06V0h-3v12.99c2.31.28 4.29.42 5.91.42.53 0 .97-.03 1.32-.1z"/><path fill="#FFF" d="M22.958 13.271c1.99 0 3.84-.33 5.56-1v-2.3c-1.33.56-2.6.84-3.8.84-1.31 0-2.25-.49-2.25-1.48v-4.01h5.81V0h-5.81V.631c-1.12-.42-2.3-.63-3.54-.63-3.15 0-5.11 1.62-5.11 4.87v1.89c0 3.23 2.15 4.51 5.34 4.51z"/><path fill="#FFF" d="M30.688 10.963V8.375c0-.44-.225-.66-.676-.66h-1.57c-.18 0-.34.02-.48.06v3.128h2.726zm-3.326 2.308c.95 0 1.95-.08 3-.24V0h-3v5.61c0 .48-.22.72-.66.72h-1.59c-.18 0-.34-.02-.48-.06V0h-3v12.99c2.31.28 4.29.42 5.91.42.53 0 .97-.03 1.32-.1zM44.408 1.99v11.002h3V1.992h-3z"/><path fill="#FFF" d="M51.988 1.99v11.002h3V1.992h-3zM59.398 13.271c1.99 0 3.84-.33 5.56-1v-2.3c-1.33.56-2.6.84-3.8.84-1.31 0-2.25-.49-2.25-1.48v-4.01h5.81V0h-5.81V.631c-1.12-.42-2.3-.63-3.54-.63-3.15 0-5.11 1.62-5.11 4.87v1.89c0 3.23 2.15 4.51 5.34 4.51z"/><path fill="#FFF" d="M73.558 13.411c1.69 0 3.19-.24 4.5-lists 72V0h-2.91s-1.35.1-2.94.1c-3.11 0-5.46-1.5-5.46-4.5V3.88c0-2.85 1.83-4.26 4.77-4.26h2.19c.96 0 1.65.04 2.07.08V0h-2.58c-1.25 0-2.07.35-2.07 1.3v.68h4.65v2.3h-4.65v5.39c0 1.25.82 1.83 2.07 1.83h2.7v2.22h-2.79c-1.63 0-3.08-.23-4.35-.7zM2.878 19.344c.95.07 1.95 0 3-.07V6.282h-3v13.062z"/><path d="M0 6.282c2.31.18 4.29.28 5.91.28.53 0 .97-.02 1.32-.07V0H4.35C2.46 0 .82 1.22.82 3.662v.97c0 2.22 1.45 3.1 3.51 3.1h2.24v2.55H4.25c-2.87 0-4.25-1.38-4.25-3.66v-1.1h-3v13.88h3V6.282z" fill="#FFF"/><path fill="#FFF" d="M12.988 28.514v-2.3h-5.4v-4.14h5.4V0h-8.4v28.51h8.4zM24.788 17.524c.04.59.06 1.14.06 1.66 0 5.43-3.6 8.39-9.15 8.39-5.19 0-8.64-2.82-8.64-7.83 0-5.18 3.75-8.22 9.2-8.22 4.09 0 7.02 1.6 8.53 4.11l-2.55 1.54c-.95-1.57-2.6-2.5-4.86-2.5-3.32 0-5.41 1.95-5.41 5.34 0 3.33 1.92 5.25 5.23 5.25 2.62 0 4.14-.99 4.95-2.58h-3.2v-2.16h5.83zM34.708 27.524v-8.83c0-3.14-1.95-4.68-4.9-4.68s-4.89 1.54-4.89 4.68v8.83h-3v-9.35c0-4.6 3.17-7.17 7.9-7.17s7.89 2.57 7.89 7.17v9.35h-3zM45.548 13.271c1.69 0 3.19-.24 4.5-.72V0h-2.91s-1.35.1-2.94.1c-3.11 0-5.46-1.5-5.46-4.5V3.88c0-2.85 1.83-4.26 4.77-4.26h2.19c.96 0 1.65.04 2.07.08V0h-2.58c-1.25 0-2.07.35-2.07 1.3v.68h4.65v2.3h-4.65v5.39c0 1.25.82 1.83 2.07 1.83h2.7v2.22h-2.79c-1.63 0-3.08-.23-4.35-.7z"/><path d="M53.188 17.524c.04.59.06 1.14.06 1.66 0 5.43-3.6 8.39-9.15 8.39-5.19 0-8.64-2.82-8.64-7.83 0-5.18 3.75-8.22 9.2-8.22 4.09 0 7.02 1.6 8.53 4.11l-2.55 1.54c-.95-1.57-2.6-2.5-4.86-2.5-3.32 0-5.41 1.95-5.41 5.34 0 3.33 1.92 5.25 5.23 5.25 2.62 0 4.14-.99 4.95-2.58h-3.2v-2.16h5.83z" fill="#FFF"/><path fill="#FFF" d="M63.818 27.524v-8.83c0-3.14-1.95-4.68-4.9-4.68-2.94 0-4.89 1.54-4.89 4.68v8.83h-3v-9.35c0-4.6 3.17-7.17 7.9-7.17s7.89 2.57 7.89 7.17v9.35h-3zM72.238 24.524l5.37-12.53h-3.15l-3.71 8.9-3.72-8.9h-3.14l5.37 12.53v2.99h3z"/></g></g></svg>
